<?xml version="1.0" encoding="UTF-8"?>
<svg width="50px" height="50px" viewBox="0 0 50 50" version="1.1" xmlns="http://www.w3.org/2000/svg" xmlns:xlink="http://www.w3.org/1999/xlink">
    <!-- Generator: Sketch 43.2 (39069) - http://www.bohemiancoding.com/sketch -->
    <title>icon-menu</title>
    <desc>Created with Sketch.</desc>
    <defs></defs>
    <g id="Page-2" stroke="none" stroke-width="1" fill="none" fill-rule="evenodd">
        <g id="icon-menu">
            <path d="M25,50 C11.2138268,50 0,38.7851987 0,25 C0,11.2146859 11.2138268,0 25,0 C38.7844431,0 50,11.2146859 50,25 C50,38.7851987 38.7844431,50 25,50" id="Fill" fill="#231F1F"></path>
            <path d="M25,1.5 C12.0405747,1.5 1.5,12.0422835 1.5,25 C1.5,37.9578426 12.0405747,48.5 25,48.5 C37.9570294,48.5 48.5,37.9578426 48.5,25 C48.5,12.0422835 37.9570294,1.5 25,1.5" id="Path" fill="#FFFFFF"></path>
            <g id="Group" transform="translate(14.166667, 16.666667)" fill="#231F1F">
                <rect id="Rectangle" x="0" y="0" width="21.6666667" height="2.76315789"></rect>
                <rect id="Rectangle" x="0" y="7.36842105" width="21.6666667" height="2.76315789"></rect>
                <rect id="Rectangle" x="0" y="14.7368421" width="21.6666667" height="2.76315789"></rect>
            </g>
        </g>
    </g>
</svg>