<?xml version="1.0" encoding="UTF-8"?>
<svg width="52px" height="52px" viewBox="0 0 52 52" version="1.1" xmlns="http://www.w3.org/2000/svg" xmlns:xlink="http://www.w3.org/1999/xlink">
    <!-- Generator: Sketch 43.2 (39069) - http://www.bohemiancoding.com/sketch -->
    <title>icon-polly</title>
    <desc>Created with Sketch.</desc>
    <defs></defs>
    <g id="Page-2" stroke="none" stroke-width="1" fill="none" fill-rule="evenodd">
        <g id="icon-polly">
            <g id="Group">
                <path d="M26,52 C11.6623799,52 0,40.3366067 0,26 C0,11.6632734 11.6623799,0 26,0 C40.3358208,0 52,11.6632734 52,26 C52,40.3366067 40.3358208,52 26,52" id="Fill" fill="#231F1F"></path>
                <path d="M26,3.46666667 C13.5736574,3.46666667 3.46666667,13.575296 3.46666667,26 C3.46666667,38.4248249 13.5736574,48.5333333 26,48.5333333 C38.4240452,48.5333333 48.5333333,38.4248249 48.5333333,26 C48.5333333,13.575296 38.4240452,3.46666667 26,3.46666667" id="Path" fill="#FFFFFF"></path>
                <path d="M20.1237604,24.7459014 C21.688553,24.7459014 22.4837696,23.9506848 22.4837696,22.3602516 C22.4837696,20.7698184 21.688553,19.9746018 20.1237604,19.9746018 L16.8145714,19.9746018 L16.8145714,24.7459014 L20.1237604,24.7459014 Z M16.8145714,27.8242055 L16.8145714,34.8528323 L13.4798618,34.8528323 L13.4798618,16.8964175 L20.2519631,16.8964175 C23.9202396,16.8964175 25.8698802,19.076823 25.8698802,22.3602516 C25.8698802,25.6438 23.9202396,27.8242055 20.2519631,27.8242055 L16.8145714,27.8242055 Z M27.5632111,28.3885733 C27.5632111,26.4645733 28.1531834,24.8741401 29.3330083,23.6172737 C30.5131926,22.3602876 32.1036258,21.7189143 34.130188,21.7189143 C36.1566304,21.7189143 37.7470636,22.3602876 38.9270083,23.6172737 C40.106953,24.8741401 40.6970452,26.4645733 40.6970452,28.3885733 C40.6970452,30.3125733 40.106953,31.9285272 38.9270083,33.1855134 C37.7470636,34.4423797 36.1566304,35.0581124 34.130188,35.0581124 C32.1036258,35.0581124 30.5131926,34.4423797 29.3330083,33.1855134 C28.1531834,31.9285272 27.5632111,30.3125733 27.5632111,28.3885733 Z M30.8979207,28.3885733 C30.8979207,29.4915963 31.1799668,30.440776 31.770059,31.2103521 C32.3600313,31.9542876 33.1296074,32.3390157 34.130188,32.3390157 C35.130529,32.3390157 35.9001051,31.9542876 36.4900774,31.2103521 C37.0801696,30.440776 37.3622157,29.4915963 37.3622157,28.3885733 C37.3622157,27.2854304 37.0801696,26.3363705 36.4900774,25.592435 C35.9001051,24.822859 35.130529,24.4381309 34.130188,24.4381309 C33.1296074,24.4381309 32.3600313,24.822859 31.770059,25.592435 C31.1799668,26.3363705 30.8979207,27.2854304 30.8979207,28.3885733 Z" id="Combined-Shape" fill="#231F1F"></path>
            </g>
        </g>
    </g>
</svg>