<?xml version="1.0" encoding="UTF-8"?>
<svg width="50px" height="50px" viewBox="0 0 50 50" version="1.1" xmlns="http://www.w3.org/2000/svg" xmlns:xlink="http://www.w3.org/1999/xlink">
    <!-- Generator: Sketch 43.2 (39069) - http://www.bohemiancoding.com/sketch -->
    <title>icon-close</title>
    <desc>Created with Sketch.</desc>
    <defs></defs>
    <g id="Page-2" stroke="none" stroke-width="1" fill="none" fill-rule="evenodd">
        <g id="icon-close">
            <path d="M25,50 C11.2138268,50 0,38.7851987 0,25 C0,11.2146859 11.2138268,0 25,0 C38.7844431,0 50,11.2146859 50,25 C50,38.7851987 38.7844431,50 25,50" id="Combined-Shape" fill="#2C2C2C"></path>
            <g id="Group-2" transform="translate(26.000000, 26.000000) scale(-1, 1) translate(-26.000000, -26.000000) translate(12.000000, 11.000000)" fill="#FFFFFF">
                <path d="M20.9256233,0 C22.603708,0 23.999239,1.39090909 23.999239,3.06363636 C23.999239,4.73636364 22.603708,6.06363636 20.9256233,6.06363636 C19.2474474,6.06363636 17.9158514,4.72727273 17.9158514,3.06363636 C17.9158514,1.4 19.1927243,0 20.9256233,0 Z" id="Path"></path>
                <path d="M10.2181315,21.1909091 C9.55233344,21.9728182 9.10542791,22.2455455 8.21161683,22.1909091 L1.45331064,22.0819091 C0.614222694,22.0272727 -0.0515753516,21.1909091 0.00314777543,20.4728182 C0.0578709025,19.4728182 0.732789469,18.9181818 1.68132367,18.9181818 L7.87415755,18.8636364 L9.32432041,16.9090909 L9.32432041,16.9090909 L11.9510305,19.0272727 L10.2181315,21.1909091 Z" id="Path"></path>
                <path d="M26.397936,16.1273636 L20.8709002,14.9090909 C20.4787178,14.8 20.2051022,14.5181818 20.0319035,14.1818182 L18.7458188,11.3454545 C18.6363725,11.4545455 15.7908611,16.1273636 15.7908611,16.1273636 L19.0286461,18.5727273 C20.0319035,19.4090909 20.1412585,20.1818182 19.7582878,21.2454545 L16.4110566,28.9272727 C16.1282292,29.6545455 15.298353,30.1545455 14.459265,29.8726364 C13.6201771,29.5908182 13.0638253,28.6453636 13.4560077,27.8180909 L16.3563334,20.8635455 L12.0058448,17.5817273 C10.8292976,16.8544545 10.3915126,15.4634545 11.22148,14.0725455 L15.1250631,7.72709091 L12.2794605,6.72709091 L7.14460706,9.29072727 C6.47880901,9.68163636 5.63972107,9.34527273 5.30226178,8.73618182 C5.01952563,8.18163636 5.24753865,7.39981818 5.80389045,7.06345455 L11.1667569,4.28163636 C11.4494931,4.118 11.7231087,3.99981818 12.0058448,3.99981818 C12.288581,3.99981818 12.5621966,4.05436364 12.7902097,4.10890909 L17.3139882,5.55436364 C17.4782488,5.60890909 17.5968155,5.66345455 17.7062618,5.77254545 L20.1594996,7.60909091 C20.4969589,7.82727273 20.6064051,8.21818182 20.7159426,8.5 L21.9472129,12.3363636 L26.917897,13.6181818 C27.583695,13.7818182 27.9211543,14.4000909 27.9211543,15.0090909 C27.8480989,15.5727273 27.0728546,16.3 26.397936,16.1273636 Z" id="Path"></path>
            </g>
        </g>
    </g>
</svg>